<svg enable-background="new 0 0 612 612" height="612" viewBox="0 0 612 612" width="612" xmlns="http://www.w3.org/2000/svg"><path d="m419.475 63.75c84.15 38.25 142.8 119.85 153 216.75h38.25c-15.3-158.1-145.35-280.5-306-280.5-5.1 0-10.2 0-17.85 0l96.9 96.9zm-160.65-20.4c-15.3-15.3-38.25-15.3-53.55 0l-163.2 163.2c-15.3 15.3-15.3 38.25 0 53.55l306 306c15.301 15.301 38.25 15.301 53.551 0l163.199-163.2c15.301-15.301 15.301-38.25 0-53.551zm117.3 497.25-306-306 163.2-163.2 306 306zm-186.15 7.65c-84.15-38.25-142.8-119.85-153-216.75h-35.7c12.75 158.1 142.8 280.5 303.45 280.5h17.85l-96.899-96.9z"/></svg>